<?xml version="1.0" standalone="no"?>
<!DOCTYPE svg PUBLIC "-//W3C//DTD SVG 20010904//EN"
 "http://www.w3.org/TR/2001/REC-SVG-20010904/DTD/svg10.dtd">
<svg version="1.0" xmlns="http://www.w3.org/2000/svg"
 width="512.000000pt" height="512.000000pt" viewBox="0 0 512.000000 512.000000"
 preserveAspectRatio="xMidYMid meet">

<g transform="translate(0.000000,512.000000) scale(0.100000,-0.100000)"
fill="#000000" stroke="none">
<path d="M2335 4784 c-271 -15 -367 -25 -550 -59 -266 -49 -386 -104 -432
-195 -22 -42 -23 -56 -23 -269 l0 -224 -38 -51 c-112 -148 -190 -350 -232
-594 -22 -136 -70 -544 -101 -882 -26 -270 -31 -715 -10 -910 13 -127 45 -300
67 -364 34 -98 148 -252 241 -327 83 -67 169 -111 323 -164 185 -63 302 -92
461 -111 342 -41 1067 -2 1394 75 144 35 257 96 397 215 115 97 215 251 267
410 67 205 81 367 88 1016 l5 535 -31 245 c-34 270 -65 422 -107 526 -57 144
-113 251 -164 319 l-54 69 3 219 c3 218 3 218 -24 272 -44 92 -133 150 -297
195 -126 34 -176 41 -438 55 -300 17 -434 17 -745 -1z m775 -119 c238 -14 302
-25 443 -71 156 -52 204 -137 135 -240 -25 -37 -48 -56 -96 -80 -151 -75 -310
-108 -628 -130 -198 -14 -270 -14 -419 -5 -99 6 -232 11 -295 11 -166 0 -429
43 -581 95 -172 58 -261 169 -198 249 27 34 68 51 204 86 325 83 903 117 1435
85z m-1610 -475 c25 -16 66 -37 92 -47 l48 -17 0 -94 0 -94 -87 47 c-49 26
-91 50 -94 54 -9 8 -18 181 -10 181 3 0 26 -14 51 -30z m2216 -116 c-6 -24
-84 -62 -238 -118 l-97 -35 -5 27 c-3 15 -8 48 -12 74 -6 46 -5 47 22 53 63
14 214 69 270 99 l59 31 3 -55 c2 -30 1 -64 -2 -76z m-1851 0 c50 -9 92 -18
94 -20 6 -6 17 -214 11 -214 -11 0 -213 60 -217 64 -7 7 8 186 16 186 3 0 47
-7 96 -16z m1377 -36 c11 -28 31 -148 27 -153 -3 -3 -54 -16 -114 -29 -75 -17
-112 -22 -116 -14 -4 6 -12 44 -19 86 -7 42 -14 81 -16 87 -4 8 30 15 108 22
62 5 116 10 119 11 4 1 9 -4 11 -10z m-955 -12 c1 -1 3 -53 3 -116 l2 -115
-58 2 c-33 1 -78 5 -101 8 l-42 6 -3 107 c-2 59 -2 109 -1 112 1 5 194 1 200
-4z m325 -20 c4 -6 8 -42 8 -81 0 -38 3 -87 7 -108 l6 -39 -106 4 c-62 2 -111
8 -117 14 -8 8 -10 44 -5 122 l7 110 97 -5 c53 -3 99 -11 103 -17z m277 -23
c20 -76 40 -167 37 -170 -6 -6 -176 -27 -180 -22 -2 2 -7 52 -10 111 l-7 107
43 4 c110 9 106 10 117 -30z m1176 -1610 c0 -547 -1 -561 -20 -583 -38 -43
-374 -191 -574 -254 -99 -31 -327 -78 -491 -102 -179 -25 -637 -31 -830 -10
-411 44 -762 123 -1030 232 l-55 22 -6 64 c-10 100 -10 380 1 543 11 162 47
546 55 582 5 21 6 21 93 -17 165 -71 408 -139 734 -205 304 -61 663 -87 888
-65 321 32 573 104 1095 311 66 26 125 46 130 45 7 -2 10 -198 10 -563z"/>
<path d="M2250 4609 c-296 -23 -440 -84 -440 -188 0 -82 84 -147 228 -176 81
-17 429 -35 677 -35 231 0 430 31 590 91 106 39 139 127 73 193 -82 81 -294
117 -718 121 -162 2 -347 -1 -410 -6z m596 -109 c234 -19 434 -56 434 -79 0
-9 -109 -43 -215 -67 -150 -34 -892 -27 -1030 11 -33 9 -71 23 -84 31 -30 20
-16 35 53 57 129 43 579 68 842 47z"/>
<path d="M3206 2398 c-11 -19 -13 -43 -6 -123 5 -55 14 -167 20 -250 13 -168
22 -195 70 -195 34 0 65 37 56 67 -3 10 -10 81 -16 158 -14 185 -30 305 -43
330 -21 41 -59 47 -81 13z"/>
<path d="M3040 2365 c-28 -34 11 -507 46 -562 20 -31 68 -31 89 0 13 20 13 33
1 103 -8 43 -22 158 -31 254 -10 103 -23 184 -32 198 -16 26 -54 29 -73 7z"/>
<path d="M2329 2311 c-15 -12 -23 -32 -27 -69 -4 -46 -8 -53 -31 -58 -36 -9
-61 -33 -61 -59 0 -30 19 -45 57 -45 18 0 33 -4 33 -9 0 -40 24 -171 36 -194
33 -62 119 -85 182 -47 62 38 33 112 -43 107 -46 -2 -52 11 -54 109 l-1 61 36
6 c47 8 74 33 74 67 0 40 -22 53 -75 48 -42 -5 -45 -4 -45 18 0 64 -41 97 -81
65z"/>
<path d="M1378 2279 c-22 -12 -26 -40 -32 -227 -5 -142 -4 -154 14 -172 25
-25 55 -25 79 -1 15 15 21 41 26 115 l7 95 45 27 c37 21 47 24 55 13 5 -8 7
-66 5 -132 -5 -107 -3 -121 14 -138 25 -25 42 -24 75 4 26 22 27 28 32 144 4
110 3 125 -17 166 -12 25 -33 53 -47 62 -33 21 -107 22 -139 1 -30 -20 -35
-20 -35 -1 0 18 -35 55 -52 55 -7 0 -21 -5 -30 -11z"/>
<path d="M3562 2273 c-47 -23 -118 -106 -136 -160 -35 -104 -9 -198 64 -227
50 -20 82 -13 133 26 l37 29 10 -28 c17 -49 26 -58 58 -61 24 -2 34 3 47 21
14 22 14 31 -4 108 -10 46 -24 118 -30 159 -18 115 -19 119 -51 135 -37 19
-86 19 -128 -2z m44 -145 c-14 -89 -74 -170 -84 -114 -8 38 53 156 80 156 7 0
8 -15 4 -42z"/>
<path d="M2720 2218 c-71 -49 -97 -117 -79 -207 9 -45 20 -63 64 -107 78 -78
151 -83 237 -17 43 33 53 59 32 90 -19 29 -54 30 -103 1 -24 -14 -44 -19 -56
-14 -17 6 -14 10 20 29 75 42 104 120 70 187 -31 60 -124 79 -185 38z m90
-102 c0 -8 -10 -22 -22 -30 -30 -22 -48 -3 -23 24 21 23 45 26 45 6z"/>
<path d="M1861 2197 c-37 -46 -50 -212 -20 -271 49 -94 147 -118 217 -53 53
49 112 220 93 270 -22 56 -93 36 -111 -33 -5 -22 -15 -58 -20 -79 -6 -22 -19
-50 -29 -62 -16 -20 -21 -21 -34 -10 -22 18 -31 87 -19 151 9 44 8 60 -4 78
-16 25 -55 30 -73 9z"/>
</g>
</svg>
